<svg xmlns="http://www.w3.org/2000/svg" width="520" height="900" viewBox="0 0 520 900">
    
  <defs>
    <linearGradient id="wallpaper" x1="0" y1="0" x2="0.4" y2="1">
      <stop offset="0" stop-color="#16161c"/>
      <stop offset="0.5" stop-color="#0c0c11"/>
      <stop offset="1" stop-color="#050507"/>
    </linearGradient>
    <radialGradient id="widgetHalo" cx="0.5" cy="0.5" r="0.5">
      <stop offset="0" stop-color="#ffffff" stop-opacity="0.10"/>
      <stop offset="1" stop-color="#ffffff" stop-opacity="0"/>
    </radialGradient>
    <radialGradient id="pageGlow" cx="0.5" cy="0.5" r="0.5">
      <stop offset="0" stop-color="#ffffff" stop-opacity="0.06"/>
      <stop offset="1" stop-color="#ffffff" stop-opacity="0"/>
    </radialGradient>
    <filter id="nodeGlow" x="-200%" y="-200%" width="500%" height="500%">
      <feGaussianBlur stdDeviation="2.4" result="b"/>
      <feMerge><feMergeNode in="b"/><feMergeNode in="SourceGraphic"/></feMerge>
    </filter>
    <filter id="widgetShadow" x="-40%" y="-40%" width="180%" height="200%">
      <feDropShadow dx="0" dy="8" stdDeviation="14" flood-color="#000000" flood-opacity="0.45"/>
    </filter>
    <filter id="phoneShadow" x="-60%" y="-30%" width="220%" height="160%">
      <feDropShadow dx="0" dy="30" stdDeviation="44" flood-color="#000000" flood-opacity="0.7"/>
    </filter>
  </defs>
    <g transform="translate(90,90)"><g filter="url(#phoneShadow)">
      <rect x="0" y="0" width="340" height="720" rx="58" fill="#0a0a0c"/>
      <rect x="2" y="2" width="336" height="716" rx="56" fill="none" stroke="#3a3a40" stroke-width="2"/>
      <rect x="5" y="5" width="330" height="710" rx="54" fill="none" stroke="#000000" stroke-width="2" stroke-opacity="0.6"/>
    </g>
    <clipPath id="screenClip"><rect x="14" y="14" width="312" height="692" rx="46"/></clipPath>
    <g clip-path="url(#screenClip)">
      <rect x="14" y="14" width="312" height="692" fill="url(#wallpaper)"/>
      <ellipse cx="170" cy="164" rx="170" ry="140" fill="url(#widgetHalo)"/>
      <g opacity="0.5"><line x1="70" y1="150" x2="120" y2="120" stroke="#ffffff" stroke-opacity="0.06" stroke-width="1"/><line x1="120" y1="120" x2="250" y2="130" stroke="#ffffff" stroke-opacity="0.06" stroke-width="1"/><line x1="250" y1="130" x2="230" y2="210" stroke="#ffffff" stroke-opacity="0.06" stroke-width="1"/><line x1="180" y1="170" x2="120" y2="120" stroke="#ffffff" stroke-opacity="0.06" stroke-width="1"/><line x1="95" y1="250" x2="160" y2="500" stroke="#ffffff" stroke-opacity="0.06" stroke-width="1"/><line x1="160" y1="500" x2="270" y2="470" stroke="#ffffff" stroke-opacity="0.06" stroke-width="1"/><line x1="270" y1="470" x2="210" y2="610" stroke="#ffffff" stroke-opacity="0.06" stroke-width="1"/><line x1="300" y1="300" x2="160" y2="500" stroke="#ffffff" stroke-opacity="0.06" stroke-width="1"/><line x1="60" y1="420" x2="95" y2="250" stroke="#ffffff" stroke-opacity="0.06" stroke-width="1"/><circle cx="70" cy="150" r="2" fill="#ffffff" fill-opacity="0.16"/><circle cx="120" cy="120" r="3.4" fill="#ffffff" fill-opacity="0.16"/><circle cx="180" cy="170" r="2.2" fill="#ffffff" fill-opacity="0.16"/><circle cx="250" cy="130" r="2.6" fill="#ffffff" fill-opacity="0.16"/><circle cx="230" cy="210" r="1.8" fill="#ffffff" fill-opacity="0.16"/><circle cx="95" cy="250" r="2" fill="#ffffff" fill-opacity="0.16"/><circle cx="300" cy="300" r="2.4" fill="#ffffff" fill-opacity="0.16"/><circle cx="60" cy="420" r="2.2" fill="#ffffff" fill-opacity="0.16"/><circle cx="160" cy="500" r="3" fill="#ffffff" fill-opacity="0.16"/><circle cx="270" cy="470" r="2" fill="#ffffff" fill-opacity="0.16"/><circle cx="210" cy="610" r="2.4" fill="#ffffff" fill-opacity="0.16"/><circle cx="110" cy="640" r="2" fill="#ffffff" fill-opacity="0.16"/></g>
      
    <g filter="url(#widgetShadow)">
      <rect x="36" y="72" width="268" height="134" rx="22" fill="#141418" fill-opacity="0.86"/>
      <rect x="36" y="72" width="268" height="134" rx="22" fill="none" stroke="#ffffff" stroke-opacity="0.10" stroke-width="1"/>
    </g>
    <circle cx="57" cy="93" r="5" fill="#ffffff" filter="url(#nodeGlow)"/>
    <text x="70" y="97" font-family="DejaVu Sans" font-size="9.5" letter-spacing="1.6" fill="#ffffff" fill-opacity="0.62">DAILY STOIC</text>
    <text x="288" y="97" font-family="DejaVu Sans" font-size="9" letter-spacing="1.2" fill="#ffffff" fill-opacity="0.40" text-anchor="end">WED · MAY 28</text>
    <text font-family="DejaVu Serif" font-size="15" fill="#ffffff" fill-opacity="0.95">
      <tspan x="52" y="124">You have power over your</tspan>
      <tspan x="52" y="145">mind — not outside events.</tspan>
      <tspan x="52" y="166">Realize this, find strength.</tspan>
    </text>
    <text x="52" y="192" font-family="DejaVu Serif" font-size="10.5" font-style="italic" fill="#ffffff" fill-opacity="0.5">— Marcus Aurelius, Meditations</text>
      <g>
    <rect x="32" y="234" width="54" height="54" rx="14.580000000000002" fill="#0b0b0d"/>
    <rect x="32" y="234" width="54" height="54" rx="14.580000000000002" fill="none" stroke="#ffffff" stroke-opacity="0.08" stroke-width="1"/>
    
      <line x1="48" y1="270" x2="61" y2="255" stroke="#ffffff" stroke-opacity="0.5" stroke-width="1"/>
      <line x1="61" y1="255" x2="71" y2="268" stroke="#ffffff" stroke-opacity="0.5" stroke-width="1"/>
      <circle cx="48" cy="270" r="2.4" fill="#bdbdbd"/>
      <circle cx="71" cy="268" r="2.4" fill="#bdbdbd"/>
      <circle cx="61" cy="255" r="4.6" fill="#ffffff" filter="url(#nodeGlow)"/><rect x="30.5" y="232.5" width="57" height="57" rx="16.080000000000002" fill="none" stroke="#ffffff" stroke-opacity="0.55" stroke-width="1.2"/></g><text x="59" y="301" font-family="DejaVu Sans" font-size="9" fill="#ffffff" fill-opacity="0.92" text-anchor="middle">Stoic</text><g>
    <rect x="106" y="234" width="54" height="54" rx="14.580000000000002" fill="#1c1c20"/>
    <rect x="106" y="234" width="54" height="54" rx="14.580000000000002" fill="none" stroke="#ffffff" stroke-opacity="0.08" stroke-width="1"/>
    <g stroke="#e8e8e8" stroke-width="1.6" stroke-linecap="round" opacity="0.85">
      <line x1="124" y1="254" x2="142" y2="254"/>
      <line x1="124" y1="261" x2="142" y2="261"/>
      <line x1="124" y1="268" x2="136" y2="268"/></g></g><text x="133" y="301" font-family="DejaVu Sans" font-size="9" fill="#ffffff" fill-opacity="0.62" text-anchor="middle">Journal</text><g>
    <rect x="180" y="234" width="54" height="54" rx="14.580000000000002" fill="#1c1c20"/>
    <rect x="180" y="234" width="54" height="54" rx="14.580000000000002" fill="none" stroke="#ffffff" stroke-opacity="0.08" stroke-width="1"/>
    <circle cx="207" cy="261" r="10" fill="none" stroke="#e8e8e8" stroke-width="1.6" opacity="0.85"/>
      <circle cx="207" cy="261" r="4" fill="#e8e8e8" opacity="0.85"/></g><text x="207" y="301" font-family="DejaVu Sans" font-size="9" fill="#ffffff" fill-opacity="0.62" text-anchor="middle">Calm</text><g>
    <rect x="254" y="234" width="54" height="54" rx="14.580000000000002" fill="#1c1c20"/>
    <rect x="254" y="234" width="54" height="54" rx="14.580000000000002" fill="none" stroke="#ffffff" stroke-opacity="0.08" stroke-width="1"/>
    <g fill="#e8e8e8" opacity="0.85"><rect x="271" y="252" width="6" height="18" rx="1.2"/>
      <rect x="279" y="252" width="6" height="18" rx="1.2"/>
      <rect x="287" y="254" width="6" height="16" rx="1.2" transform="rotate(12 290 261)"/></g></g><text x="281" y="301" font-family="DejaVu Sans" font-size="9" fill="#ffffff" fill-opacity="0.62" text-anchor="middle">Library</text><g>
    <rect x="32" y="318" width="54" height="54" rx="14.580000000000002" fill="#1c1c20"/>
    <rect x="32" y="318" width="54" height="54" rx="14.580000000000002" fill="none" stroke="#ffffff" stroke-opacity="0.08" stroke-width="1"/>
    <g fill="none" stroke="#e8e8e8" stroke-width="1.6" opacity="0.85"><rect x="50" y="336" width="18" height="18" rx="3"/>
      <line x1="54" y1="342" x2="64" y2="342"/><line x1="54" y1="347" x2="62" y2="347"/></g></g><text x="59" y="385" font-family="DejaVu Sans" font-size="9" fill="#ffffff" fill-opacity="0.62" text-anchor="middle">Notes</text><g>
    <rect x="106" y="318" width="54" height="54" rx="14.580000000000002" fill="#1c1c20"/>
    <rect x="106" y="318" width="54" height="54" rx="14.580000000000002" fill="none" stroke="#ffffff" stroke-opacity="0.08" stroke-width="1"/>
    <path d="M 133 353 C 119 341, 127 333, 133 341 C 139 333, 147 341, 133 353 Z" fill="#e8e8e8" opacity="0.85"/></g><text x="133" y="385" font-family="DejaVu Sans" font-size="9" fill="#ffffff" fill-opacity="0.62" text-anchor="middle">Health</text><g>
    <rect x="180" y="318" width="54" height="54" rx="14.580000000000002" fill="#1c1c20"/>
    <rect x="180" y="318" width="54" height="54" rx="14.580000000000002" fill="none" stroke="#ffffff" stroke-opacity="0.08" stroke-width="1"/>
    <circle cx="207" cy="345" r="10" fill="none" stroke="#e8e8e8" stroke-width="1.6" opacity="0.85"/>
      <line x1="207" y1="345" x2="207" y2="338" stroke="#e8e8e8" stroke-width="1.6" stroke-linecap="round"/>
      <line x1="207" y1="345" x2="212" y2="347" stroke="#e8e8e8" stroke-width="1.6" stroke-linecap="round"/></g><text x="207" y="385" font-family="DejaVu Sans" font-size="9" fill="#ffffff" fill-opacity="0.62" text-anchor="middle">Clock</text><g>
    <rect x="254" y="318" width="54" height="54" rx="14.580000000000002" fill="#1c1c20"/>
    <rect x="254" y="318" width="54" height="54" rx="14.580000000000002" fill="none" stroke="#ffffff" stroke-opacity="0.08" stroke-width="1"/>
    <g fill="#e8e8e8" opacity="0.85"><circle cx="276" cy="352" r="3.4"/><circle cx="288" cy="349" r="3.4"/>
      <rect x="278" y="336" width="1.8" height="16"/><rect x="290" y="333" width="1.8" height="16"/>
      <path d="M 278 336 L 291.8 333 L 291.8 337 L 278 340 Z"/></g></g><text x="281" y="385" font-family="DejaVu Sans" font-size="9" fill="#ffffff" fill-opacity="0.62" text-anchor="middle">Music</text>
      
    <rect x="30" y="606" width="280" height="84" rx="28" fill="#ffffff" fill-opacity="0.06"/>
    <rect x="30" y="606" width="280" height="84" rx="28" fill="none" stroke="#ffffff" stroke-opacity="0.08"/>
    <g>
    <rect x="46" y="621" width="54" height="54" rx="14.580000000000002" fill="#1c1c20"/>
    <rect x="46" y="621" width="54" height="54" rx="14.580000000000002" fill="none" stroke="#ffffff" stroke-opacity="0.08" stroke-width="1"/>
    <path d="M 65 640 q -2 0 -2 3 q 0 14 16 16 q 3 0 3 -2 l -1 -4 q 0 -2 -2 -2 l -3 1 q -5 -3 -6 -7 l 1 -3 q 0 -2 -2 -2 Z" fill="#e8e8e8" opacity="0.9"/></g>
    <g>
    <rect x="110.66666666666667" y="621" width="54" height="54" rx="14.580000000000002" fill="#1c1c20"/>
    <rect x="110.66666666666667" y="621" width="54" height="54" rx="14.580000000000002" fill="none" stroke="#ffffff" stroke-opacity="0.08" stroke-width="1"/>
    <path d="M 127.66666666666669 641 h 20 q 2 0 2 2 v 8 q 0 2 -2 2 h -10 l -6 5 v -5 h -4 q -2 0 -2 -2 v -8 q 0 -2 2 -2 Z" fill="#e8e8e8" opacity="0.9"/></g>
    <g>
    <rect x="175.33333333333334" y="621" width="54" height="54" rx="14.580000000000002" fill="#1c1c20"/>
    <rect x="175.33333333333334" y="621" width="54" height="54" rx="14.580000000000002" fill="none" stroke="#ffffff" stroke-opacity="0.08" stroke-width="1"/>
    <circle cx="202.33333333333334" cy="648" r="10" fill="none" stroke="#e8e8e8" stroke-width="1.6" opacity="0.85"/>
      <path d="M 202.33333333333334 648 L 207.33333333333334 643 L 202.33333333333334 648 L 199.33333333333334 654 Z" fill="#e8e8e8" opacity="0.85"/></g>
    <g>
    <rect x="240" y="621" width="54" height="54" rx="14.580000000000002" fill="#1c1c20"/>
    <rect x="240" y="621" width="54" height="54" rx="14.580000000000002" fill="none" stroke="#ffffff" stroke-opacity="0.08" stroke-width="1"/>
    <rect x="256" y="641" width="22" height="15" rx="3" fill="none" stroke="#e8e8e8" stroke-width="1.6" opacity="0.9"/>
      <circle cx="267" cy="648.5" r="4.2" fill="none" stroke="#e8e8e8" stroke-width="1.6" opacity="0.9"/></g>
      <rect x="115" y="697" width="110" height="4.5" rx="2.25" fill="#ffffff" fill-opacity="0.85"/>
    </g>
    <rect x="117" y="17" width="106" height="30" rx="15" fill="#000000"/>
    <circle cx="207" cy="32" r="4.5" fill="#0d0d18" stroke="#15151f" stroke-width="1"/>
    
    <text x="36" y="33" font-family="DejaVu Sans" font-size="14" font-weight="bold" fill="#ffffff">9:41</text>
    <g transform="translate(252, 22)" fill="#ffffff">
      <g><rect x="0" y="6" width="2.4" height="4" rx="0.6"/><rect x="3.6" y="4" width="2.4" height="6" rx="0.6"/><rect x="7.2" y="2" width="2.4" height="8" rx="0.6"/><rect x="10.8" y="0" width="2.4" height="10" rx="0.6"/></g>
      <path d="M 19 7 a 6 6 0 0 1 11 0 M 21.5 9.2 a 3 3 0 0 1 6 0 M 24.5 11 a 0.2 0.2 0 0 1 0.001 0" fill="none" stroke="#ffffff" stroke-width="1.6" stroke-linecap="round"/>
      <g transform="translate(38,0)"><rect x="0" y="1" width="17" height="9" rx="2.4" fill="none" stroke="#ffffff" stroke-opacity="0.6" stroke-width="1.1"/><rect x="1.6" y="2.6" width="12" height="5.8" rx="1.2" fill="#ffffff"/><rect x="17.6" y="3.6" width="1.6" height="3.8" rx="0.8" fill="#ffffff" fill-opacity="0.6"/></g>
    </g></g>
  </svg>